<svg xmlns="http://www.w3.org/2000/svg" viewBox="531.461 173.987 826.010 38.339">
  <g fill="#6E5D4B">
    <path d="M 552.754 177.968 L 537.743 177.968 L 537.743 192.461 L 549.462 192.461 C 549.899 192.461 550.118 192.691 550.118 193.152 C 550.118 193.623 549.899 193.854 549.462 193.854 L 537.743 193.854 L 537.743 208.404 L 552.754 208.404 C 553.238 208.404 553.479 208.634 553.479 209.106 C 553.479 209.578 553.238 209.809 552.754 209.809 L 535.567 209.809 C 535.003 209.809 534.508 209.613 534.094 209.210 C 533.680 208.795 533.461 208.301 533.461 207.702 L 533.461 178.612 C 533.461 178.060 533.680 177.577 534.094 177.173 C 534.508 176.771 535.003 176.563 535.567 176.563 L 552.754 176.563 C 553.238 176.563 553.479 176.805 553.479 177.266 C 553.479 177.738 553.238 177.968 552.754 177.968 Z"/>
    <path d="M 604.475 209.808 C 604.038 209.808 603.819 209.578 603.819 209.106 L 603.819 181.283 L 583.880 208.852 C 583.524 209.325 583.075 209.624 582.534 209.750 C 581.981 209.877 581.464 209.785 580.980 209.486 C 580.278 209.106 579.933 208.496 579.933 207.644 L 579.933 177.265 C 579.933 176.805 580.173 176.563 580.658 176.563 C 581.141 176.563 581.383 176.805 581.383 177.265 L 581.383 205.088 L 601.252 177.530 C 601.562 177.058 602.000 176.759 602.564 176.632 C 603.139 176.505 603.668 176.563 604.153 176.816 C 604.855 177.242 605.200 177.818 605.200 178.543 L 605.200 209.106 C 605.200 209.578 604.959 209.808 604.475 209.808 Z"/>
    <path d="M 661.802 182.250 C 661.582 182.250 661.411 182.181 661.273 182.054 C 659.822 180.604 658.130 179.476 656.173 178.670 C 654.216 177.864 652.133 177.461 649.888 177.461 L 649.819 177.461 C 647.976 177.461 646.262 177.876 644.662 178.704 C 643.050 179.533 641.657 180.650 640.447 182.054 C 639.240 183.459 638.284 185.116 637.582 187.027 C 636.880 188.950 636.534 190.987 636.534 193.151 C 636.534 195.327 636.880 197.364 637.582 199.287 C 638.284 201.198 639.240 202.867 640.447 204.294 C 641.657 205.710 643.050 206.838 644.662 207.679 C 646.262 208.507 647.976 208.922 649.819 208.922 L 649.957 208.922 C 652.190 208.876 654.250 208.462 656.138 207.679 C 658.026 206.884 659.695 205.814 661.146 204.455 C 661.273 204.237 661.490 204.133 661.802 204.133 C 662.286 204.133 662.527 204.363 662.527 204.835 C 662.527 205.008 662.457 205.192 662.332 205.411 L 662.263 205.411 C 662.170 205.492 662.113 205.561 662.067 205.595 L 661.870 205.791 C 660.283 207.195 658.475 208.300 656.438 209.106 C 654.399 209.912 652.190 210.326 649.819 210.326 C 647.367 210.326 645.063 209.877 642.912 208.980 C 640.759 208.093 638.883 206.861 637.283 205.307 C 635.683 203.753 634.428 201.934 633.507 199.851 C 632.575 197.767 632.114 195.534 632.114 193.151 C 632.114 190.780 632.575 188.547 633.507 186.486 C 634.428 184.426 635.683 182.607 637.283 181.030 C 638.883 179.464 640.759 178.221 642.912 177.335 C 645.063 176.437 647.367 175.988 649.819 175.988 C 652.282 175.988 654.572 176.437 656.702 177.335 C 658.832 178.221 660.707 179.464 662.332 181.030 C 662.457 181.156 662.527 181.329 662.527 181.548 C 662.527 182.008 662.286 182.250 661.802 182.250 Z"/>
    <path d="M 693.654 189.134 L 699.905 205.664 L 706.098 189.134 Z Z"/>
    <path d="M 714.386 179.315 L 714.317 179.372 L 703.462 208.347 L 703.462 208.404 C 703.289 208.795 703.024 209.118 702.667 209.394 C 702.322 209.671 701.908 209.809 701.424 209.809 C 700.941 209.809 700.503 209.659 700.100 209.360 C 699.709 209.072 699.467 208.680 699.375 208.220 L 687.795 177.530 L 687.795 177.461 C 687.749 177.415 687.737 177.358 687.737 177.266 C 687.737 176.805 687.967 176.563 688.451 176.563 C 688.808 176.563 689.027 176.713 689.119 177.012 L 693.125 187.799 L 706.616 187.799 L 710.311 177.968 C 710.438 177.542 710.691 177.208 711.059 176.955 C 711.439 176.690 711.865 176.563 712.349 176.563 C 712.959 176.563 713.465 176.771 713.857 177.173 C 714.260 177.576 714.455 178.060 714.455 178.612 C 714.455 178.946 714.432 179.188 714.386 179.315 Z"/>
    <path d="M 765.197 209.808 C 764.760 209.808 764.529 209.578 764.529 209.106 L 764.529 181.283 L 744.591 208.852 C 744.246 209.325 743.797 209.624 743.245 209.750 C 742.692 209.877 742.186 209.785 741.702 209.486 C 741.000 209.106 740.643 208.496 740.643 207.644 L 740.643 177.265 C 740.643 176.805 740.885 176.563 741.368 176.563 C 741.852 176.563 742.093 176.805 742.093 177.265 L 742.093 205.088 L 761.974 177.530 C 762.273 177.058 762.711 176.759 763.286 176.632 C 763.850 176.505 764.380 176.563 764.863 176.816 C 765.565 177.242 765.922 177.818 765.922 178.543 L 765.922 209.106 C 765.922 209.578 765.680 209.808 765.197 209.808 Z"/>
    <path d="M 817.114 209.808 L 793.562 209.808 C 793.078 209.808 792.836 209.578 792.836 209.106 C 792.836 208.634 793.078 208.404 793.562 208.404 L 803.162 208.404 L 803.162 178.612 C 803.162 178.059 803.381 177.576 803.795 177.173 C 804.210 176.770 804.728 176.563 805.338 176.563 C 805.948 176.563 806.455 176.770 806.857 177.173 C 807.249 177.576 807.444 178.059 807.444 178.612 L 807.444 208.404 L 817.114 208.404 C 817.598 208.404 817.839 208.634 817.839 209.106 C 817.839 209.578 817.598 209.808 817.114 209.808 Z"/>
    <path d="M 870.297 187.027 C 869.595 185.116 868.639 183.459 867.431 182.054 C 866.222 180.650 864.818 179.533 863.217 178.704 C 861.617 177.875 859.902 177.461 858.060 177.461 C 856.207 177.461 854.492 177.875 852.892 178.704 C 851.292 179.533 849.887 180.650 848.678 182.054 C 847.470 183.459 846.514 185.116 845.812 187.027 C 845.110 188.950 844.765 190.987 844.765 193.151 C 844.765 195.327 845.110 197.364 845.812 199.287 C 846.514 201.198 847.470 202.867 848.678 204.294 C 849.887 205.710 851.292 206.838 852.892 207.678 C 854.492 208.507 856.207 208.922 858.060 208.922 C 859.902 208.922 861.617 208.507 863.217 207.678 C 864.818 206.838 866.222 205.710 867.431 204.294 C 868.639 202.867 869.595 201.198 870.297 199.287 C 870.999 197.364 871.344 195.327 871.344 193.151 C 871.344 190.987 870.999 188.950 870.297 187.027 Z"/>
    <path d="M 874.372 199.851 C 873.451 201.934 872.185 203.753 870.562 205.307 C 868.939 206.861 867.051 208.093 864.898 208.979 C 862.745 209.877 860.466 210.326 858.060 210.326 C 855.597 210.326 853.295 209.877 851.142 208.979 C 848.989 208.093 847.124 206.861 845.513 205.307 C 843.913 203.753 842.658 201.934 841.737 199.851 C 840.816 197.767 840.356 195.534 840.356 193.151 C 840.356 190.780 840.816 188.547 841.737 186.486 C 842.658 184.425 843.913 182.606 845.513 181.030 C 847.124 179.464 848.989 178.221 851.142 177.334 C 853.295 176.437 855.597 175.987 858.060 175.987 C 860.466 175.987 862.745 176.437 864.898 177.334 C 867.051 178.221 868.939 179.464 870.562 181.030 C 872.185 182.606 873.451 184.425 874.372 186.486 C 875.293 188.547 875.765 190.780 875.765 193.151 C 875.765 195.534 875.293 197.767 874.372 199.851 Z"/>
    <path d="M 954.895 194.912 C 954.527 193.738 954.009 192.725 953.352 191.850 C 952.696 190.975 951.936 190.284 951.085 189.778 C 950.233 189.260 949.312 189.006 948.356 189.006 L 940.321 189.006 L 940.321 208.403 L 948.356 208.403 C 949.312 208.403 950.233 208.150 951.085 207.643 C 951.936 207.125 952.696 206.435 953.352 205.572 C 954.009 204.697 954.527 203.661 954.895 202.475 C 955.275 201.278 955.459 200.023 955.459 198.711 C 955.459 197.341 955.275 196.086 954.895 194.912 Z"/>
    <path d="M 958.843 203.016 C 958.256 204.351 957.439 205.537 956.414 206.550 C 955.378 207.575 954.170 208.369 952.788 208.944 C 951.407 209.520 949.934 209.808 948.356 209.808 L 938.146 209.808 C 937.582 209.808 937.087 209.612 936.672 209.209 C 936.247 208.795 936.039 208.300 936.039 207.701 L 936.039 178.612 C 936.039 178.059 936.247 177.576 936.672 177.173 C 937.087 176.770 937.582 176.563 938.146 176.563 C 938.767 176.563 939.274 176.770 939.700 177.173 C 940.114 177.576 940.321 178.059 940.321 178.612 L 940.321 187.602 L 948.356 187.602 C 949.934 187.602 951.407 187.890 952.788 188.465 C 954.170 189.041 955.378 189.835 956.414 190.860 C 957.439 191.884 958.256 193.059 958.843 194.405 C 959.442 195.741 959.741 197.180 959.741 198.711 C 959.741 200.242 959.442 201.669 958.843 203.016 Z"/>
    <path d="M 984.675 189.134 L 990.937 205.664 L 997.119 189.134 Z Z"/>
    <path d="M 1005.407 179.315 L 1005.350 179.372 L 994.483 208.347 L 994.483 208.404 C 994.310 208.795 994.045 209.118 993.700 209.394 C 993.343 209.671 992.929 209.809 992.445 209.809 C 991.962 209.809 991.524 209.659 991.133 209.360 C 990.730 209.072 990.488 208.680 990.408 208.220 L 978.827 177.530 L 978.827 177.461 C 978.781 177.415 978.758 177.358 978.758 177.266 C 978.758 176.805 979.000 176.563 979.483 176.563 C 979.829 176.563 980.047 176.713 980.139 177.012 L 984.157 187.799 L 997.648 187.799 L 1001.332 177.968 C 1001.459 177.542 1001.712 177.208 1002.092 176.955 C 1002.460 176.690 1002.886 176.563 1003.370 176.563 C 1003.980 176.563 1004.486 176.771 1004.889 177.173 C 1005.281 177.576 1005.476 178.060 1005.476 178.612 C 1005.476 178.946 1005.453 179.188 1005.407 179.315 Z"/>
    <path d="M 1056.092 189.076 C 1055.252 190.308 1054.193 191.344 1052.892 192.196 C 1051.603 193.047 1050.164 193.773 1048.587 194.371 C 1047.010 194.970 1045.478 195.523 1044.005 196.064 C 1042.543 196.593 1041.219 197.146 1040.057 197.721 C 1038.894 198.297 1038.054 198.999 1037.524 199.851 C 1036.914 200.875 1036.603 202.026 1036.603 203.304 C 1036.603 204.283 1036.856 205.111 1037.363 205.791 C 1037.869 206.470 1038.503 207.034 1039.274 207.483 C 1040.034 207.932 1040.897 208.242 1041.841 208.438 C 1042.785 208.634 1043.694 208.726 1044.569 208.726 C 1046.503 208.726 1048.299 208.473 1049.968 207.955 C 1051.637 207.448 1053.099 206.792 1054.377 205.986 C 1054.550 205.860 1054.745 205.791 1054.964 205.791 C 1055.229 205.791 1055.459 205.883 1055.655 206.078 C 1055.862 206.274 1055.954 206.493 1055.954 206.746 C 1055.954 207.345 1055.516 207.863 1054.642 208.312 C 1053.767 208.761 1052.708 209.129 1051.476 209.428 C 1050.256 209.727 1049.001 209.946 1047.723 210.096 C 1046.457 210.246 1045.421 210.326 1044.638 210.326 C 1043.096 210.326 1041.576 210.177 1040.057 209.877 C 1038.549 209.578 1037.190 209.072 1035.982 208.369 C 1034.773 207.678 1033.795 206.735 1033.058 205.572 C 1032.309 204.398 1031.930 202.936 1031.930 201.198 C 1031.930 199.494 1032.459 198.043 1033.518 196.858 C 1034.566 195.661 1035.855 194.648 1037.397 193.796 C 1038.929 192.944 1040.563 192.207 1042.301 191.597 C 1044.028 190.975 1045.605 190.365 1047.010 189.778 C 1047.666 189.479 1048.322 189.157 1048.978 188.823 C 1049.634 188.477 1050.233 188.074 1050.751 187.603 C 1051.280 187.142 1051.718 186.590 1052.075 185.979 C 1052.420 185.358 1052.639 184.610 1052.731 183.712 C 1052.685 182.399 1052.408 181.329 1051.914 180.523 C 1051.407 179.717 1050.751 179.096 1049.933 178.670 C 1049.116 178.244 1048.230 177.956 1047.263 177.806 C 1046.307 177.657 1045.340 177.588 1044.373 177.588 C 1042.129 177.588 1039.988 178.002 1037.927 178.831 C 1035.855 179.660 1034.002 180.799 1032.332 182.250 C 1032.068 182.411 1031.849 182.503 1031.665 182.503 C 1031.365 182.503 1031.124 182.399 1030.951 182.215 C 1030.767 182.020 1030.686 181.801 1030.686 181.547 C 1030.686 181.122 1030.997 180.650 1031.642 180.143 C 1032.275 179.625 1033.023 179.142 1033.875 178.670 C 1034.727 178.198 1035.613 177.795 1036.511 177.426 C 1037.409 177.070 1038.123 176.816 1038.652 176.690 C 1040.448 176.229 1042.336 175.987 1044.304 175.987 C 1045.444 175.987 1046.699 176.114 1048.057 176.344 C 1049.415 176.575 1050.716 176.954 1051.936 177.495 C 1053.168 178.025 1054.250 178.727 1055.194 179.602 C 1056.138 180.465 1056.783 181.547 1057.140 182.825 C 1057.266 183.332 1057.335 183.907 1057.335 184.541 C 1057.335 186.325 1056.921 187.844 1056.092 189.076 Z"/>
    <path d="M 1105.844 209.808 L 1082.280 209.808 C 1081.797 209.808 1081.555 209.578 1081.555 209.106 C 1081.555 208.634 1081.797 208.404 1082.280 208.404 L 1091.892 208.404 L 1091.892 178.612 C 1091.892 178.059 1092.099 177.576 1092.514 177.173 C 1092.928 176.770 1093.446 176.563 1094.056 176.563 C 1094.678 176.563 1095.184 176.770 1095.576 177.173 C 1095.967 177.576 1096.163 178.059 1096.163 178.612 L 1096.163 208.404 L 1105.844 208.404 C 1106.328 208.404 1106.569 208.634 1106.569 209.106 C 1106.569 209.578 1106.328 209.808 1105.844 209.808 Z"/>
    <path d="M 1151.844 177.968 L 1136.845 177.968 L 1136.845 192.461 L 1148.552 192.461 C 1148.989 192.461 1149.208 192.691 1149.208 193.152 C 1149.208 193.623 1148.989 193.854 1148.552 193.854 L 1136.845 193.854 L 1136.845 208.404 L 1151.844 208.404 C 1152.328 208.404 1152.569 208.634 1152.569 209.106 C 1152.569 209.578 1152.328 209.809 1151.844 209.809 L 1134.669 209.809 C 1134.093 209.809 1133.610 209.613 1133.184 209.210 C 1132.770 208.795 1132.562 208.301 1132.562 207.702 L 1132.562 178.612 C 1132.562 178.060 1132.770 177.577 1133.184 177.173 C 1133.610 176.771 1134.093 176.563 1134.669 176.563 L 1151.844 176.563 C 1152.328 176.563 1152.569 176.805 1152.569 177.266 C 1152.569 177.738 1152.328 177.968 1151.844 177.968 Z"/>
    <path d="M 1197.579 177.968 L 1183.305 177.968 L 1183.305 207.702 C 1183.305 208.301 1183.098 208.795 1182.683 209.210 C 1182.257 209.613 1181.751 209.809 1181.129 209.809 C 1180.565 209.809 1180.070 209.613 1179.656 209.210 C 1179.230 208.795 1179.023 208.301 1179.023 207.702 L 1179.023 178.612 C 1179.023 178.060 1179.230 177.577 1179.656 177.173 C 1180.070 176.771 1180.565 176.563 1181.129 176.563 L 1197.579 176.563 C 1198.063 176.563 1198.304 176.805 1198.304 177.266 C 1198.304 177.738 1198.063 177.968 1197.579 177.968 Z"/>
    <path d="M 1244.051 177.968 L 1229.040 177.968 L 1229.040 192.461 L 1240.759 192.461 C 1241.196 192.461 1241.415 192.691 1241.415 193.152 C 1241.415 193.623 1241.196 193.854 1240.759 193.854 L 1229.040 193.854 L 1229.040 208.404 L 1244.051 208.404 C 1244.535 208.404 1244.776 208.634 1244.776 209.106 C 1244.776 209.578 1244.535 209.809 1244.051 209.809 L 1226.876 209.809 C 1226.300 209.809 1225.805 209.613 1225.391 209.210 C 1224.977 208.795 1224.769 208.301 1224.769 207.702 L 1224.769 178.612 C 1224.769 178.060 1224.977 177.577 1225.391 177.173 C 1225.805 176.771 1226.300 176.563 1226.876 176.563 L 1244.051 176.563 C 1244.535 176.563 1244.776 176.805 1244.776 177.266 C 1244.776 177.738 1244.535 177.968 1244.051 177.968 Z"/>
    <path d="M 1287.357 192.460 C 1286.655 192.034 1285.907 191.815 1285.112 191.815 L 1275.500 191.815 L 1275.500 208.403 L 1285.112 208.403 C 1285.907 208.403 1286.655 208.196 1287.357 207.770 C 1288.059 207.345 1288.658 206.746 1289.164 205.986 C 1289.671 205.215 1290.074 204.328 1290.384 203.339 C 1290.684 202.337 1290.845 201.255 1290.845 200.115 C 1290.845 198.964 1290.684 197.882 1290.384 196.892 C 1290.074 195.890 1289.671 195.004 1289.164 194.244 C 1288.658 193.473 1288.059 192.875 1287.357 192.460 Z"/>
    <path d="M 1292.744 193.853 C 1293.493 194.705 1294.080 195.660 1294.494 196.731 C 1294.909 197.790 1295.116 198.918 1295.116 200.115 C 1295.116 201.427 1294.851 202.682 1294.333 203.879 C 1293.803 205.065 1293.090 206.101 1292.192 206.976 C 1291.294 207.839 1290.223 208.530 1289.003 209.048 C 1287.771 209.555 1286.471 209.808 1285.112 209.808 L 1273.336 209.808 C 1272.760 209.808 1272.265 209.612 1271.851 209.209 C 1271.437 208.795 1271.229 208.300 1271.229 207.701 L 1271.229 178.612 C 1271.229 178.059 1271.437 177.576 1271.851 177.173 C 1272.265 176.770 1272.760 176.563 1273.336 176.563 C 1273.946 176.563 1274.464 176.770 1274.879 177.173 C 1275.293 177.576 1275.500 178.059 1275.500 178.612 L 1275.500 190.411 L 1282.085 190.411 L 1289.659 177.656 C 1289.694 177.610 1289.717 177.564 1289.717 177.530 C 1290.154 176.885 1290.776 176.563 1291.570 176.563 C 1292.180 176.563 1292.687 176.770 1293.078 177.173 C 1293.470 177.576 1293.677 178.059 1293.677 178.612 C 1293.677 178.992 1293.608 179.314 1293.470 179.567 L 1287.415 189.778 L 1286.897 190.538 C 1288.082 190.756 1289.164 191.148 1290.154 191.723 C 1291.133 192.299 1292.008 193.013 1292.744 193.853 Z"/>
    <path d="M 1350.002 187.027 C 1349.300 185.116 1348.356 183.459 1347.147 182.054 C 1345.938 180.650 1344.534 179.533 1342.934 178.704 C 1341.334 177.875 1339.607 177.461 1337.765 177.461 C 1335.923 177.461 1334.197 177.875 1332.597 178.704 C 1330.997 179.533 1329.592 180.650 1328.383 182.054 C 1327.175 183.459 1326.231 185.116 1325.529 187.027 C 1324.826 188.950 1324.470 190.987 1324.470 193.151 C 1324.470 195.327 1324.826 197.364 1325.529 199.287 C 1326.231 201.198 1327.175 202.867 1328.383 204.294 C 1329.592 205.710 1330.997 206.838 1332.597 207.678 C 1334.197 208.507 1335.923 208.922 1337.765 208.922 C 1339.607 208.922 1341.334 208.507 1342.934 207.678 C 1344.534 206.838 1345.938 205.710 1347.147 204.294 C 1348.356 202.867 1349.300 201.198 1350.002 199.287 C 1350.704 197.364 1351.061 195.327 1351.061 193.151 C 1351.061 190.987 1350.704 188.950 1350.002 187.027 Z"/>
    <path d="M 1354.089 199.851 C 1353.168 201.934 1351.890 203.753 1350.267 205.307 C 1348.644 206.861 1346.756 208.093 1344.615 208.979 C 1342.462 209.877 1340.183 210.326 1337.765 210.326 C 1335.302 210.326 1333.000 209.877 1330.858 208.979 C 1328.706 208.093 1326.829 206.861 1325.229 205.307 C 1323.629 203.753 1322.363 201.934 1321.442 199.851 C 1320.521 197.767 1320.061 195.534 1320.061 193.151 C 1320.061 190.780 1320.521 188.547 1321.442 186.486 C 1322.363 184.425 1323.629 182.606 1325.229 181.030 C 1326.829 179.464 1328.706 178.221 1330.858 177.334 C 1333.000 176.437 1335.302 175.987 1337.765 175.987 C 1340.183 175.987 1342.462 176.437 1344.615 177.334 C 1346.756 178.221 1348.644 179.464 1350.267 181.030 C 1351.890 182.606 1353.168 184.425 1354.089 186.486 C 1355.009 188.547 1355.470 190.780 1355.470 193.151 C 1355.470 195.534 1355.009 197.767 1354.089 199.851 Z"/>
  </g>
</svg>
